<?xml version="1.0" encoding="UTF-8"?>
<svg xmlns="http://www.w3.org/2000/svg" xmlns:xlink="http://www.w3.org/1999/xlink" width="14px" height="14px" viewBox="0 0 14 6" version="1.1">
<g id="surface1">
<path style=" stroke:none;fill-rule:nonzero;fill:rgb(100%,100%,100%);fill-opacity:1;" d="M 2.3125 1.074219 C 1.757812 1.074219 1.398438 1.222656 1.097656 1.574219 L 1.097656 1.1875 L 0.0195312 1.1875 L 0.0195312 5.957031 C 0.0195312 5.957031 0.0390625 5.964844 0.0976562 5.972656 C 0.171875 5.992188 0.566406 6.070312 0.859375 5.839844 C 1.113281 5.640625 1.171875 5.402344 1.171875 5.136719 L 1.171875 4.453125 C 1.484375 4.757812 1.832031 4.890625 2.320312 4.890625 C 3.378906 4.890625 4.1875 4.089844 4.1875 3.027344 C 4.1875 1.875 3.40625 1.074219 2.3125 1.074219 Z M 2.105469 3.984375 C 1.511719 3.984375 1.039062 3.527344 1.039062 2.972656 C 1.039062 2.429688 1.59375 1.988281 2.105469 1.988281 C 2.707031 1.988281 3.171875 2.417969 3.171875 2.980469 C 3.171875 3.546875 2.699219 3.984375 2.105469 3.984375 Z M 2.105469 3.984375 "/>
<path style=" stroke:none;fill-rule:nonzero;fill:rgb(100%,100%,100%);fill-opacity:1;" d="M 5.71875 2.910156 C 5.71875 3.324219 5.765625 3.828125 6.199219 4.371094 C 6.207031 4.382812 6.226562 4.40625 6.226562 4.40625 C 6.046875 4.6875 5.832031 4.882812 5.539062 4.882812 C 5.3125 4.882812 5.085938 4.769531 4.898438 4.574219 C 4.699219 4.363281 4.605469 4.089844 4.605469 3.800781 L 4.605469 0 L 5.707031 0 Z M 5.71875 2.910156 "/>
<path style=" stroke:none;fill-rule:nonzero;fill:rgb(92.156863%,68.627453%,0%);fill-opacity:1;" d="M 11.179688 4.769531 L 9.839844 4.769531 L 11.140625 2.980469 L 9.839844 1.1875 L 11.179688 1.1875 L 12.46875 2.980469 Z M 11.179688 4.769531 "/>
<path style=" stroke:none;fill-rule:nonzero;fill:rgb(100%,100%,100%);fill-opacity:1;" d="M 12.820312 2.78125 L 13.980469 1.1875 L 12.640625 1.1875 L 12.160156 1.847656 Z M 12.820312 2.78125 "/>
<path style=" stroke:none;fill-rule:nonzero;fill:rgb(100%,100%,100%);fill-opacity:1;" d="M 12.160156 4.117188 C 12.160156 4.117188 12.386719 4.40625 12.386719 4.40625 C 12.601562 4.722656 12.886719 4.882812 13.214844 4.882812 C 13.566406 4.875 13.808594 4.59375 13.902344 4.488281 C 13.902344 4.488281 13.734375 4.347656 13.515625 4.109375 C 13.226562 3.792969 12.839844 3.210938 12.828125 3.183594 Z M 12.160156 4.117188 "/>
<path style=" stroke:none;fill-rule:nonzero;fill:rgb(100%,100%,100%);fill-opacity:1;" d="M 8.847656 3.738281 C 8.621094 3.933594 8.472656 4.039062 8.160156 4.039062 C 7.605469 4.039062 7.28125 3.667969 7.234375 3.265625 L 10.1875 3.265625 C 10.207031 3.210938 10.214844 3.140625 10.214844 3.027344 C 10.214844 1.910156 9.339844 1.074219 8.1875 1.074219 C 7.09375 1.074219 6.199219 1.925781 6.199219 2.992188 C 6.199219 4.046875 7.09375 4.882812 8.214844 4.882812 C 9 4.882812 9.679688 4.46875 10.046875 3.738281 Z M 8.199219 1.917969 C 8.6875 1.917969 9.054688 2.21875 9.140625 2.613281 L 7.273438 2.613281 C 7.367188 2.199219 7.71875 1.917969 8.199219 1.917969 Z M 8.199219 1.917969 "/>
</g>
</svg>
