<?xml version="1.0" encoding="UTF-8"?>
<svg xmlns="http://www.w3.org/2000/svg" xmlns:xlink="http://www.w3.org/1999/xlink" width="14px" height="14px" viewBox="0 0 14 14" version="1.1">
<defs>
<linearGradient id="linear0" gradientUnits="userSpaceOnUse" x1="0.4989" y1="-0.00045" x2="0.4989" y2="0.99858" gradientTransform="matrix(14,0,0,14,0,0)">
<stop offset="0" style="stop-color:rgb(0%,0%,0%);stop-opacity:1;"/>
<stop offset="1" style="stop-color:rgb(20%,20%,20%);stop-opacity:1;"/>
</linearGradient>
</defs>
<g id="surface1">
<rect x="0" y="0" width="14" height="14" style="fill:url(#linear0);stroke:none;"/>
<path style=" stroke:none;fill-rule:nonzero;fill:rgb(100%,100%,100%);fill-opacity:1;" d="M 1.875 8.84375 C 1.875 9.164062 1.894531 9.445312 1.925781 9.679688 C 1.988281 10.164062 2.183594 10.539062 2.511719 10.804688 C 2.820312 11.054688 3.324219 11.222656 4.027344 11.308594 C 4.601562 11.378906 5.539062 11.417969 6.835938 11.417969 C 8.972656 11.417969 10.277344 11.34375 10.75 11.199219 C 11.234375 11.054688 11.582031 10.78125 11.792969 10.382812 C 12.003906 9.980469 12.113281 9.347656 12.113281 8.488281 C 12.113281 7.71875 12.003906 7.160156 11.785156 6.8125 C 11.644531 6.578125 11.453125 6.394531 11.214844 6.265625 C 10.972656 6.140625 10.652344 6.042969 10.25 5.980469 C 9.847656 5.914062 8.921875 5.859375 7.472656 5.816406 C 5.871094 5.765625 4.96875 5.714844 4.769531 5.65625 C 4.53125 5.589844 4.414062 5.402344 4.414062 5.09375 C 4.414062 4.773438 4.527344 4.574219 4.75 4.496094 C 4.949219 4.429688 5.589844 4.398438 6.667969 4.398438 C 7.757812 4.398438 8.445312 4.410156 8.726562 4.4375 C 9.046875 4.46875 9.234375 4.601562 9.292969 4.839844 C 9.3125 4.921875 9.328125 5.066406 9.335938 5.277344 L 11.804688 5.277344 C 11.808594 5.070312 11.808594 4.921875 11.808594 4.828125 C 11.808594 3.957031 11.613281 3.355469 11.222656 3.019531 C 10.929688 2.773438 10.457031 2.605469 9.800781 2.503906 C 9.300781 2.433594 8.445312 2.398438 7.238281 2.398438 C 5.378906 2.398438 4.199219 2.441406 3.707031 2.527344 C 3.160156 2.625 2.75 2.828125 2.480469 3.132812 C 2.121094 3.539062 1.941406 4.238281 1.941406 5.230469 C 1.941406 5.699219 1.976562 6.078125 2.050781 6.367188 C 2.183594 6.894531 2.460938 7.265625 2.886719 7.484375 C 3.214844 7.65625 3.785156 7.753906 4.59375 7.777344 C 4.90625 7.785156 5.582031 7.816406 6.628906 7.867188 C 7.644531 7.917969 8.308594 7.945312 8.628906 7.945312 C 9.089844 7.953125 9.382812 8.019531 9.503906 8.144531 C 9.59375 8.234375 9.640625 8.390625 9.640625 8.609375 C 9.640625 8.9375 9.566406 9.144531 9.425781 9.238281 C 9.324219 9.304688 9.109375 9.347656 8.789062 9.375 C 8.617188 9.382812 7.988281 9.386719 6.902344 9.394531 C 6.109375 9.386719 5.640625 9.382812 5.496094 9.378906 C 5.210938 9.371094 5.011719 9.355469 4.898438 9.335938 C 4.78125 9.3125 4.679688 9.277344 4.589844 9.214844 C 4.417969 9.09375 4.335938 8.816406 4.339844 8.382812 L 1.875 8.382812 L 1.875 8.847656 Z M 1.875 8.84375 "/>
</g>
</svg>
