<?xml version="1.0" encoding="UTF-8"?>
<svg xmlns="http://www.w3.org/2000/svg" xmlns:xlink="http://www.w3.org/1999/xlink" width="14px" height="14px" viewBox="0 0 14 14" version="1.1">
<defs>
<radialGradient id="radial0" gradientUnits="userSpaceOnUse" cx="48.459999" cy="-0.95" fx="48.459999" fy="-0.95" r="64.839996" gradientTransform="matrix(0.291667,0,0,0.291667,0,0)">
<stop offset="0" style="stop-color:rgb(62.352941%,25.882353%,77.647059%);stop-opacity:1;"/>
<stop offset="0.27" style="stop-color:rgb(62.745098%,25.490196%,76.470588%);stop-opacity:1;"/>
<stop offset="0.42" style="stop-color:rgb(64.313725%,24.313725%,73.333333%);stop-opacity:1;"/>
<stop offset="0.53" style="stop-color:rgb(66.666667%,22.352941%,67.843137%);stop-opacity:1;"/>
<stop offset="0.64" style="stop-color:rgb(70.588235%,20%,60.392157%);stop-opacity:1;"/>
<stop offset="0.73" style="stop-color:rgb(75.294118%,16.862745%,50.588235%);stop-opacity:1;"/>
<stop offset="0.82" style="stop-color:rgb(81.176471%,12.54902%,38.039216%);stop-opacity:1;"/>
<stop offset="0.9" style="stop-color:rgb(88.235294%,7.843137%,23.529412%);stop-opacity:1;"/>
<stop offset="0.97" style="stop-color:rgb(96.078431%,2.352941%,7.45098%);stop-opacity:1;"/>
<stop offset="1" style="stop-color:rgb(100%,0%,0%);stop-opacity:1;"/>
</radialGradient>
</defs>
<g id="surface1">
<path style=" stroke:none;fill-rule:nonzero;fill:url(#radial0);" d="M 14 3.285156 L 14 10.714844 C 14 12.527344 12.527344 14 10.714844 14 L 3.285156 14 C 1.46875 14 0 12.527344 0 10.714844 L 0 3.285156 C 0 1.46875 1.46875 0 3.285156 0 L 10.714844 0 C 11.859375 0 12.921875 0.59375 13.519531 1.574219 C 13.570312 1.660156 13.617188 1.746094 13.664062 1.835938 C 13.761719 2.03125 13.839844 2.238281 13.894531 2.457031 C 13.925781 2.566406 13.949219 2.679688 13.960938 2.792969 C 13.988281 2.953125 14 3.117188 14 3.285156 "/>
<path style=" stroke:none;fill-rule:nonzero;fill:rgb(100%,100%,100%);fill-opacity:1;" d="M 3.972656 5.242188 L 6.28125 7.550781 L 6.710938 7.121094 L 4.402344 4.8125 Z M 8.167969 9.441406 L 8.597656 9.015625 L 7.96875 8.386719 L 13.894531 2.457031 C 13.839844 2.238281 13.761719 2.03125 13.664062 1.835938 L 7.113281 8.386719 Z M 3.769531 5.445312 L 3.34375 5.871094 L 7.542969 10.070312 L 7.96875 9.640625 L 6.707031 8.386719 L 13.519531 1.574219 C 13.414062 1.398438 13.292969 1.238281 13.152344 1.085938 L 6.28125 7.957031 Z M 13.960938 2.792969 L 8.371094 8.386719 L 8.800781 8.8125 L 14 3.609375 L 14 3.285156 C 14 3.117188 13.988281 2.953125 13.960938 2.792969 M 7.339844 6.496094 L 5.027344 4.183594 L 4.597656 4.613281 L 6.910156 6.925781 Z M 12.050781 10.242188 C 12.050781 11.242188 11.242188 12.050781 10.242188 12.050781 L 3.757812 12.050781 C 2.757812 12.050781 1.949219 11.242188 1.949219 10.242188 L 1.949219 3.757812 C 1.949219 2.757812 2.757812 1.945312 3.757812 1.945312 L 9.816406 1.945312 L 9.816406 1.339844 L 3.757812 1.339844 C 2.425781 1.339844 1.339844 2.421875 1.339844 3.757812 L 1.339844 10.242188 C 1.339844 11.574219 2.421875 12.660156 3.757812 12.660156 L 10.242188 12.660156 C 11.574219 12.660156 12.660156 11.578125 12.660156 10.242188 L 12.660156 9.21875 L 12.054688 9.21875 L 12.054688 10.242188 Z M 12.050781 10.242188 "/>
</g>
</svg>
